<svg xmlns="http://www.w3.org/2000/svg" id="Capa_1" data-name="Capa 1" viewBox="0 0 489.94 489.94"><defs><style>.cls-1{fill:#fff;}.cls-2{fill:#151515;}.cls-3{fill:#0f0f0f;}</style></defs><circle class="cls-1" cx="245.94" cy="244.81" r="230"></circle><circle class="cls-2" cx="244.97" cy="246.97" r="148.28"></circle><path class="cls-1" d="M342.69,266.21c.07-5.43.14-10.87,0-16.31q-.15-7.46-.54-14.9c-.2-3.92-.25-8.11-3.18-11.13-2.69-2.77-6.94-3.14-10.8-3.34-13.29-.7-26.56-.78-39.87-.82q-15.61,0-31.24,0H256c-6.91,0-13.85-.2-20.76,0-5.69.16-11.43-.29-17.11,0-1.07.06-2.14.14-3.21.26-5.89.65-9.69,3.27-12.89,8.15s-5.13,10.32-9.3,14.33c-2.86,2.75-7,3.53-10.87,3.35a24.88,24.88,0,0,1-13.36-4.73c-3.4-2.49-7-3.07-11.22-2.44-6.42,1-11.34,7.71-11.49,13.87A14.62,14.62,0,0,0,158,267.19c5.42.8,10.48-2.42,15.46-4.71,6.19-2.85,14.06-4.6,19.31.85,3.28,3.41,4.77,8.09,6.32,12.46a21.79,21.79,0,0,0,12.68,13.33,24.87,24.87,0,0,0,2.53.82c5.42,1.44,11,1,16.57.93q9.08-.17,18.16-.22,18-.12,36-.1h35.45c4.33,0,8.94.5,13.21,0a9.35,9.35,0,0,0,8.88-8.68,51.52,51.52,0,0,0,.06-7.35C342.61,271.75,342.66,269,342.69,266.21Zm-183.21-8.15A5.12,5.12,0,1,1,164.6,253,5.11,5.11,0,0,1,159.48,258.06Z" transform="translate(-5.06 -3.19)"></path><path class="cls-1" d="M181.81,251.66" transform="translate(-5.06 -3.19)"></path><path class="cls-2" d="M66.2,316.21l3.31-1.14,1.35,2.26,15.86-5.44-.32-2.62,3.33-1.14.84,2.44,3.09,9a12,12,0,0,1,.69,5.22,8,8,0,0,1-1.65,4.14,8.43,8.43,0,0,1-8.15,2.8,7.93,7.93,0,0,1-3.81-2.26,12.08,12.08,0,0,1-2.65-4.55L77,321.59,72.81,323l.32,2.62-3.31,1.13Zm15.1,3.89,1.14,3.32A3.37,3.37,0,0,0,87,325.79,3.81,3.81,0,0,0,89.24,324a3.57,3.57,0,0,0,.08-3l-1.14-3.33Z" transform="translate(-5.06 -3.19)"></path><path class="cls-2" d="M76.32,343l3.12-1.59,1.66,2.06L96,335.9l-.68-2.55,3.14-1.59,5,9.93-3.14,1.6-1.66-2.06-14.94,7.6.68,2.55L81.36,353Z" transform="translate(-5.06 -3.19)"></path><path class="cls-2" d="M84.86,359.35l3.09-2.1,20.23.31-3.53-5.18-2.86,1.41-2.53-3.72,6.6-4.09,10.36,15.23-3,2L92.87,363l4.2,6.17,2.71-1.27,2.52,3.71-6.51,3.82Z" transform="translate(-5.06 -3.19)"></path><path class="cls-2" d="M100.6,381.41l2.75-2.54,20.05-2.66-4.25-4.61-2.62,1.82-3-3.31,5.92-5,12.49,13.54-2.65,2.45-20.18,2.74,5.06,5.49,2.5-1.66,3,3.29-5.87,4.75Z" transform="translate(-5.06 -3.19)"></path><path class="cls-2" d="M119,400.65l2.2-2.72,2.35,1.2,10.55-13-1.66-2.05,2.22-2.73,15.44,12.51-4.52,5.57-3.52-2.85,1.51-2.08-5.15-4.17-3.22,4,6.18,5-2.9,3.58-6.17-5-3.73,4.61,5.4,4.38,1.8-2,3.47,2.82-4.6,5.68Z" transform="translate(-5.06 -3.19)"></path><path class="cls-2" d="M141.3,418.08l1.77-3,2.5.84,8.49-14.46-1.95-1.78,1.79-3.05,10.55,6.19a12.8,12.8,0,0,1,4,3.41,7.54,7.54,0,0,1,1.53,4,7.06,7.06,0,0,1-1.06,4.14,7.45,7.45,0,0,1-3.08,2.91,8.7,8.7,0,0,1-4.34.95,9.49,9.49,0,0,1-4.63-1.42l-3.56-2.15-2.51,4.29,1.95,1.78-1.78,3Zm13.59,8,2-10.07,5.4,1.11L161.17,425l1.73,1.71-1.76,3Zm.7-15.38,3.22,1.89a4,4,0,0,0,2.72.65,2.93,2.93,0,0,0,2-1.55A3.48,3.48,0,0,0,164,409a3.72,3.72,0,0,0-1.87-2.21L159,404.92Z" transform="translate(-5.06 -3.19)"></path><path class="cls-2" d="M167.26,432.43l1.4-3.21,2.58.53,6.68-15.38-2.15-1.53,1.4-3.23,10.22,4.44-1.4,3.23-2.58-.53-6.68,15.38,2.15,1.53-1.4,3.21Zm12.49-23.65,5.12-2.87,5.61,2.44v.11l-6.2,2.28-4.41-1.92Z" transform="translate(-5.06 -3.19)"></path><path class="cls-2" d="M180.8,438.5l1-3.34,1.74.26,13.31-18,6.21,1.91.87,22.38,1.59.76-1,3.34-8.88-2.74,1-3.34,1.64.18.08-2.8-7.64-2.36-1.48,2.37,1.46.77-1,3.35Zm12.4-7.38,5.2,1.6-.09-7.91v-.92l-.09,0-.56.83Z" transform="translate(-5.06 -3.19)"></path><path class="cls-2" d="M224.12,449.48l.24-3.49,1.76-.13L235,425.3l6.48.45,5.95,21.59,1.72.38-.24,3.49-9.28-.64.25-3.5,1.64-.19-.56-2.75-8-.55-.91,2.64,1.6.42-.24,3.49Zm10.39-10,5.44.38-1.9-7.69-.21-.89h-.1l-.36.93Z" transform="translate(-5.06 -3.19)"></path><path class="cls-2" d="M255.85,451l-.27-3.49,2.53-.75-1.3-16.71-2.61-.35-.28-3.52,12.2-1a12.94,12.94,0,0,1,5.19.54,7.46,7.46,0,0,1,3.54,2.41,7.11,7.11,0,0,1,1.5,4,7.52,7.52,0,0,1-.87,4.15,8.77,8.77,0,0,1-3,3.26,9.61,9.61,0,0,1-4.62,1.48l-4.14.27.38,5,2.62.34.27,3.5Zm7.5-14.24,3.71-.29a4,4,0,0,0,2.62-1,2.93,2.93,0,0,0,.75-2.41,3.51,3.51,0,0,0-1.15-2.48,3.7,3.7,0,0,0-2.8-.75l-3.65.29Zm8.21,13-4.09-9.42,5.06-2.17,3.59,7.14,2.39.41.27,3.48Z" transform="translate(-5.06 -3.19)"></path><path class="cls-2" d="M290.52,447.16l-.74-3.43,2.43-1.08-3.41-15.82-3.76.81.41,2.66-4.42.95-1.55-7.17,22.61-4.87,1.54,7.17-4.48,1-.7-2.6-3.79.82,3.41,15.82h2.66l.73,3.42Z" transform="translate(-5.06 -3.19)"></path><path class="cls-2" d="M313.61,441.66l-1.21-3.29,2.24-1.4-5.78-15.74-2.61.37L305,418.3l18.66-6.85,2.48,6.74-4.26,1.56-1-2.36-6.22,2.29,1.76,4.79,7.46-2.74,1.58,4.32L318,428.79l2.05,5.56L326.6,432l-.8-2.57,4.2-1.54,2.52,6.86Z" transform="translate(-5.06 -3.19)"></path><path class="cls-2" d="M349.6,426.61a23.15,23.15,0,0,1-5,2.06,14.56,14.56,0,0,1-5.17.31l-3.08-5.68,4.08-2.21,2,2.68a4.23,4.23,0,0,0,2.19,0,10.28,10.28,0,0,0,2.85-1.07,5.39,5.39,0,0,0,1.55-1.16,2.41,2.41,0,0,0,.63-1.28,2.19,2.19,0,0,0-.28-1.34,2.36,2.36,0,0,0-.95-1,3.62,3.62,0,0,0-1.58-.4,14.61,14.61,0,0,0-2.5.13,34,34,0,0,1-5.6.67,8.06,8.06,0,0,1-3.88-.76,6.22,6.22,0,0,1-2.6-2.69,5.83,5.83,0,0,1-.68-3.74,7.93,7.93,0,0,1,1.7-3.69,12.46,12.46,0,0,1,3.71-3.08,18.31,18.31,0,0,1,5-2,12.43,12.43,0,0,1,4.61-.17l2.86,5.27-3.91,2.12-2.2-2.6a7.37,7.37,0,0,0-1.71.33,10.62,10.62,0,0,0-2.13.87,6,6,0,0,0-1.5,1.13,2.92,2.92,0,0,0-.74,1.33,2.06,2.06,0,0,0,.24,1.43,1.92,1.92,0,0,0,.91.85,4.17,4.17,0,0,0,1.72.26,28.43,28.43,0,0,0,3-.26,17.68,17.68,0,0,1,7.15-.32,6.32,6.32,0,0,1,4.35,3.43,5.93,5.93,0,0,1,.73,3.86,7.41,7.41,0,0,1-1.8,3.66A14,14,0,0,1,349.6,426.61Z" transform="translate(-5.06 -3.19)"></path><path class="cls-2" d="M364,418l-2.15-2.77,1.21-1.27-7.13-21.22,5.12-4,18.85,12.09,1.53-.87,2.15,2.76-7.33,5.72-2.15-2.76,1.09-1.25-2.25-1.66-6.31,4.91,1.09,2.57,1.47-.75,2.16,2.76Zm1-14.4,4.3-3.35-6.54-4.45-.76-.52-.08.06.36.93Z" transform="translate(-5.06 -3.19)"></path><path class="cls-2" d="M389.25,397.42l-2.65-2.29,1.25-2.3-12.7-10.93-2.09,1.59-2.67-2.3,1.67-1.94,4-4.63,18.58,2.82.07-.08-9-7.73-2.54,2.12-2.67-2.3,5.59-6.5,1.68-2,2.67,2.3-1.27,2.31,15.78,13.57-3.85,4.49-18.45-2.46-.06.08,8.74,7.52,2.55-2.13,2.66,2.28Z" transform="translate(-5.06 -3.19)"></path><path class="cls-2" d="M409.13,373.51l-3-1.74.64-1.64L392.1,353.19l3.22-5.63,22,4.05,1.08-1.39,3,1.74L416.86,360l-3.05-1.74.54-1.56-2.71-.69-4,6.94,2,2,1.07-1.26,3,1.75Zm-4.49-13.72,2.71-4.73-7.74-1.64-.89-.2-.06.09.69.73Z" transform="translate(-5.06 -3.19)"></path><path class="cls-2" d="M424.36,345l-3.31-1.15.33-2.61-15.83-5.51-1.37,2.25-3.32-1.15.85-2.44,2-5.67,1-3,3.33,1.15-.52,3.15,15.32,5.33,1.94-5.58-3.23-1.27,1.5-4.33,7.62,2.65Z" transform="translate(-5.06 -3.19)"></path><path class="cls-2" d="M113.42,149.68l-3.33-3,1.37-2L96.64,116.88l5.38-5.95,29.06,12,1.9-1.57,3.33,3-8.25,9.12-3.34-3,1.24-2-4-1.89-7.77,8.59,2.29,3.77,1.86-1.41,3.33,3Zm-2.16-19.41,5.49-6.07-10.7-4.74L105,119l-.1.11.66,1.1Z" transform="translate(-5.06 -3.19)"></path><path class="cls-2" d="M140.5,121.2l-2.63-3.65,2.51-2.71-14-19.44L123,96.92l-2.64-3.67,2.93-2.12,6.18-4.45,3.46-2.49,2.64,3.67-3,3.08,13.66,19,7.26-5.23-2.68-4.17,4.7-3.38,6.29,8.73Z" transform="translate(-5.06 -3.19)"></path><path class="cls-2" d="M166.5,103.12,164.61,99l3-2.19L157.51,75.1l-3.59.86-1.9-4.1,3.28-1.52,6.92-3.21,3.86-1.79,1.9,4.1-3.56,2.46,9.83,21.21,8.12-3.76-1.85-4.6,5.26-2.43,4.53,9.76Z" transform="translate(-5.06 -3.19)"></path><path class="cls-2" d="M210.42,87.13a18.33,18.33,0,0,1-7.6.3A11,11,0,0,1,197,84.5a12,12,0,0,1-3.22-6.08l-4-17-3.66.1-1-4.4,14.45-3.36,1,4.4-3.35,1.53,4,17A7.44,7.44,0,0,0,202.82,80a4.87,4.87,0,0,0,2.67,1.56,8.17,8.17,0,0,0,3.59-.11,8.7,8.7,0,0,0,3.36-1.5,5,5,0,0,0,1.72-2.59,7.47,7.47,0,0,0-.06-3.69l-4-17-3.66.1-1-4.4L219.9,49l1,4.4L217.57,55l4,17a11.9,11.9,0,0,1-.25,6.86A11.39,11.39,0,0,1,217.35,84,18.1,18.1,0,0,1,210.42,87.13Z" transform="translate(-5.06 -3.19)"></path><path class="cls-2" d="M232.49,82.09l.06-4.49,3.63-.69.34-24-3.61-.78.06-4.52,3.62.05,7.74.1L258.41,71l.15,0,.24-17.7-4.46-.8.06-4.52,11.24.16,3.62,0-.06,4.52-3.63.68-.41,29.2-7.45-.11L243.33,59.62l-.14,0L243,77l4.48.79-.06,4.5Z" transform="translate(-5.06 -3.19)"></path><path class="cls-2" d="M289.19,88a17.52,17.52,0,0,1-8.14-4.2,14,14,0,0,1-4-7,18.78,18.78,0,0,1,.23-8.88l.33-1.33a20.44,20.44,0,0,1,4.05-8.35,14.69,14.69,0,0,1,6.83-4.62,15.89,15.89,0,0,1,8.83-.09,23.57,23.57,0,0,1,6.57,2.72,17,17,0,0,1,5,4.55L307,68.35,301.63,67V62.39a7,7,0,0,0-2-1.87,10.82,10.82,0,0,0-3.23-1.33,8,8,0,0,0-5.07.24,9.17,9.17,0,0,0-3.94,3.23,16.23,16.23,0,0,0-2.47,5.64l-.35,1.37a14.29,14.29,0,0,0-.35,5.84,8.41,8.41,0,0,0,2.09,4.42,8.85,8.85,0,0,0,4.52,2.52,14.56,14.56,0,0,0,3.14.44,11.59,11.59,0,0,0,2.52-.15l1.24-5-4.16-1.48,1.27-5.12L306.51,74,303.1,87.72a19.66,19.66,0,0,1-6.37,1.16A28,28,0,0,1,289.19,88Z" transform="translate(-5.06 -3.19)"></path><path class="cls-2" d="M308,92.5l2-4,2.33.78,22.87-21.59,7.16,3.64-4,31.19,2,1.42-2,4-11-5.57,2-4,2.26.67.78-4.36-10.34-5.24-3,3.21L321,94.06l-2,4Zm18.16-7.18,7.3,3.71,1.76-11.58.17-1.16-.13-.07-.89.93Z" transform="translate(-5.06 -3.19)"></path><path class="cls-2" d="M346.28,114.24l2.82-3.51,3.3,1.71L367,94.24l-4.52-3.63-2.7,2.87-4.46-3.59,6.14-7.63,24.43,19.64-6.14,7.64-4.5-3.62,2.22-3.25L373,99l-14.64,18.2,2.38,2.85-2.81,3.51Z" transform="translate(-5.06 -3.19)"></path><path class="cls-2" d="M365.05,129.26l3.46-2.87,1.83,1.65,29.55-10.74,5.13,6.17-16,27.07,1.28,2.1-3.45,2.87L379,146l3.45-2.87,1.81,1.51,2.44-3.68-7.4-8.92-4.06,1.74,1.14,2-3.46,2.88Zm19.52.62,5.23,6.29,6.21-9.92.61-1-.09-.11-1.19.49Z" transform="translate(-5.06 -3.19)"></path><path class="cls-3" d="M250,493.13c-135.08,0-245-109.89-245-245S115,3.19,250,3.19s245,109.89,245,245S385.11,493.13,250,493.13Zm0-474.45c-126.54,0-229.48,102.94-229.48,229.48S123.49,477.64,250,477.64,479.51,374.69,479.51,248.16,376.56,18.68,250,18.68Z" transform="translate(-5.06 -3.19)"></path><path class="cls-2" d="M45.84,247.76a2.4,2.4,0,0,1,.76-1.19,3,3,0,0,1,1.39-.41L56,245a2,2,0,0,0,1.6-1.22c1.22-2.5,2.46-5,3.69-7.5a1.81,1.81,0,0,1,1.43-1.13,1.79,1.79,0,0,1,2,1.06l2.13,4.32c.53,1.07,1.07,2.13,1.58,3.21A2.15,2.15,0,0,0,70.16,245c2.76.38,5.52.79,8.28,1.19a1.87,1.87,0,0,1,1,3.29c-1.86,1.8-3.68,3.65-5.59,5.4a3,3,0,0,0-1,3.07c.51,2.57.91,5.18,1.35,7.77a1.85,1.85,0,0,1-2.69,1.93l-3-1.55L64,263.71a2.09,2.09,0,0,0-2.08,0q-3.71,2-7.43,3.91a1.8,1.8,0,0,1-2.3-.28,1.64,1.64,0,0,1-.51-1.52c.48-2.85,1-5.7,1.46-8.54a2,2,0,0,0-.63-1.91c-2-1.91-3.91-3.82-5.88-5.72a3.77,3.77,0,0,1-.82-1.16Z" transform="translate(-5.06 -3.19)"></path><path class="cls-2" d="M419.92,247.76a2.4,2.4,0,0,1,.76-1.19,3,3,0,0,1,1.39-.41l8-1.16a2,2,0,0,0,1.59-1.22l3.7-7.5a1.87,1.87,0,0,1,3.42-.07l2.13,4.32c.53,1.07,1.07,2.13,1.58,3.21a2.15,2.15,0,0,0,1.77,1.29c2.76.38,5.52.79,8.28,1.19a1.82,1.82,0,0,1,1.6,1.29,1.84,1.84,0,0,1-.58,2c-1.86,1.8-3.67,3.65-5.58,5.4a3,3,0,0,0-1,3.07c.51,2.57.91,5.18,1.35,7.77a1.85,1.85,0,0,1-2.69,1.93l-3-1.55-4.59-2.42a2.07,2.07,0,0,0-2.07,0q-3.7,2-7.43,3.91a1.8,1.8,0,0,1-2.3-.28,1.64,1.64,0,0,1-.51-1.52q.72-4.27,1.45-8.54a2,2,0,0,0-.62-1.91q-2.94-2.87-5.89-5.72a3.74,3.74,0,0,1-.81-1.16Z" transform="translate(-5.06 -3.19)"></path></svg>